<svg xmlns="http://www.w3.org/2000/svg" viewBox="0 0 24 24" width="24" height="24">
  <path fill="#4285F4" d="M23.745 12.27c0-.7-.06-1.4-.19-2.07H12v4.51h6.6c-.29 1.53-1.14 2.82-2.4 3.68v3.05h3.88c2.27-2.09 3.66-5.17 3.66-8.83z"/>
  <path fill="#34A853" d="M12 24c3.24 0 5.97-1.08 7.96-2.91l-3.88-3.05c-1.08.72-2.45 1.16-4.08 1.16-3.14 0-5.8-2.11-6.75-4.96H1.31v3.15C3.29 22.36 7.37 24 12 24z"/>
  <path fill="#FBBC05" d="M5.25 14.24a7.18 7.18 0 0 1 0-4.48V6.61H1.31a12 12 0 0 0 0 10.78l3.94-3.15z"/>
  <path fill="#EA4335" d="M12 4.75c1.77 0 3.35.61 4.6 1.8l3.42-3.42C17.95 1.19 15.24 0 12 0 7.37 0 3.29 2.64 1.31 6.61l3.94 3.15c.95-2.85 3.61-4.96 6.75-4.96z"/>
</svg>
